<?xml version="1.0" encoding="UTF-8" standalone="no"?>
<!-- Created with Inkscape (http://www.inkscape.org/) -->

<svg
   version="1.1"
   id="svg838"
   xml:space="preserve"
   width="25"
   height="84.502716"
   viewBox="0 0 25 84.502717"
   sodipodi:docname="THAPMU.svg"
   inkscape:version="1.1 (c68e22c387, 2021-05-23)"
   xmlns:inkscape="http://www.inkscape.org/namespaces/inkscape"
   xmlns:sodipodi="http://sodipodi.sourceforge.net/DTD/sodipodi-0.dtd"
   xmlns="http://www.w3.org/2000/svg"
   xmlns:svg="http://www.w3.org/2000/svg"><defs
     id="defs842"><clipPath
       clipPathUnits="userSpaceOnUse"
       id="clipPath854"><path
         d="m 0,0.004 h 25.2 v 25.2 H 0 Z"
         id="path852" /></clipPath></defs><sodipodi:namedview
     id="namedview840"
     pagecolor="#ffffff"
     bordercolor="#666666"
     borderopacity="1.0"
     inkscape:pageshadow="2"
     inkscape:pageopacity="0.0"
     inkscape:pagecheckerboard="true"
     showgrid="false"
     inkscape:zoom="2"
     inkscape:cx="-129.25"
     inkscape:cy="87.75"
     inkscape:window-width="1920"
     inkscape:window-height="1017"
     inkscape:window-x="-8"
     inkscape:window-y="1072"
     inkscape:window-maximized="1"
     inkscape:current-layer="g844"
     inkscape:snap-grids="true"
     inkscape:snap-page="true"
     inkscape:snap-text-baseline="true"
     inkscape:snap-center="true"
     inkscape:snap-object-midpoints="true"
     inkscape:snap-midpoints="true"
     inkscape:snap-smooth-nodes="true"
     inkscape:snap-intersection-paths="true"
     inkscape:object-paths="true"
     inkscape:snap-bbox="true"
     fit-margin-top="0"
     fit-margin-left="0"
     fit-margin-right="0"
     fit-margin-bottom="0" /><g
     id="g844"
     inkscape:groupmode="layer"
     inkscape:label="maintain-correct-tire-pressure-4538012"
     transform="matrix(1.3333333,0,0,-1.3333333,-5.9101563,83.810281)"><g
       id="g2900"
       transform="matrix(1.0079534,0,0,1.0079534,1.0986933,1.0710593)"><g
         id="g1373"
         transform="matrix(1.1702235,0,0,1.1702235,-2.1845632,-3.0601579)"><g
           id="g868"
           transform="translate(8.0209,9.2154)"><path
             d="m 0,0 c 0,-2.547 2.069,-4.612 4.62,-4.612 2.552,0 4.621,2.065 4.621,4.612 0,2.547 -2.069,4.612 -4.621,4.612 C 2.069,4.612 0,2.547 0,0 Z"
             style="fill:none;stroke:#000000;stroke-width:0.693;stroke-linecap:butt;stroke-linejoin:round;stroke-miterlimit:4;stroke-dasharray:none;stroke-opacity:1"
             id="path870" /></g><g
           id="g872"
           transform="translate(12.6411,13.8277)"><path
             d="m 0,0 v -1.323 m -3.267,-0.028 0.937,-0.936 m -2.29,-2.325 h 1.325 m 0.028,-3.262 0.937,0.936 M 0,-9.225 v 1.323 m 3.268,0.028 -0.938,0.936 m 2.291,2.325 H 3.295 M 3.268,-1.351 2.331,-2.287"
             style="fill:none;stroke:#000000;stroke-width:0.277;stroke-linecap:butt;stroke-linejoin:round;stroke-miterlimit:4;stroke-dasharray:none;stroke-opacity:1"
             id="path874"
             sodipodi:nodetypes="cccccccccccccccc" /></g><g
           id="g876"
           transform="translate(12.6411,3.2179)" /><g
           id="g880"
           transform="translate(12.1381,9.2154)"><path
             d="m 0,0 c 0,-0.277 0.225,-0.502 0.503,-0.502 0.278,0 0.503,0.225 0.503,0.502 0,0.278 -0.225,0.502 -0.503,0.502 C 0.225,0.502 0,0.278 0,0 Z m 0.682,0.468 1.452,3.341"
             style="fill:none;stroke:#000000;stroke-width:0.277;stroke-linecap:butt;stroke-linejoin:round;stroke-miterlimit:4;stroke-dasharray:none;stroke-opacity:1"
             id="path882" /></g></g><path
         id="path6"
         style="fill:#000000;stroke-width:0.0203632"
         class="fil0"
         d="m 16.791016,-48.126953 c -3.400664,0 -6.189454,2.7888 -6.189454,6.189453 v 54.513672 c -3.7061081,2.138129 -6.1914058,6.148748 -6.1914058,10.730469 0,6.842053 5.5602988,12.402343 12.4023438,12.402343 6.842041,0 12.400391,-5.56029 12.400391,-12.402343 0,-4.581721 -2.485296,-8.59234 -6.191407,-10.730469 l -0.03906,0.06055 V 5.7949219 h 4.255859 V 4.2070312 H 22.982422 V -5.8125 h 4.255859 V -7.4003906 H 22.982422 V -17.419922 h 4.255859 v -1.58789 h -4.255859 v -10.019532 h 4.255859 v -1.58789 H 22.982422 V -41.9375 c 0,-3.400653 -2.790753,-6.189453 -6.191406,-6.189453 z m 0.02148,2.21875 c 2.178867,0 3.970703,1.791834 3.970703,3.970703 v 55.796875 h -0.04102 l 1.11914,0.650391 c 3.156299,1.832676 5.091797,5.173349 5.091797,8.818359 0,5.599885 -4.54187,10.160156 -10.162109,10.160156 -5.599896,0 -10.1601566,-4.539897 -10.1601566,-10.160156 0,-3.64501 1.9539091,-7.006057 5.0898436,-8.818359 l 1.119141,-0.650391 V -41.9375 c 0,-2.178869 1.793796,-3.970703 3.972656,-3.970703 z m -2.404297,35.1875 v 25.597656 c -3.685735,1.038548 -6.3730467,4.418143 -6.3730468,8.429688 0,4.846466 3.9309048,8.777343 8.7773438,8.777343 4.846447,0 8.775391,-3.930877 8.775391,-8.777343 0,-4.011545 -2.687302,-7.39114 -6.373047,-8.429688 V -10.720703 Z M 16.8125,15.806641 a 7.4999999,7.4999999 0 0 1 7.5,7.5 7.4999999,7.4999999 0 0 1 -7.5,7.5 7.4999999,7.4999999 0 0 1 -7.5,-7.5 7.4999999,7.4999999 0 0 1 7.5,-7.5 z"
         transform="matrix(0.75000002,0,0,-0.75000002,0,25.203901)" /></g></g></svg>
